# xmcd
#
# Track frame offsets: 
#        150
#        10223
#        32131
#        52557
#        83259
#        95367
#        114891
#        133046
#        150233
#        156798
#        172857
#        187250
#        207143
#        223336
#        243904
#        255603
#        276634
#        296122
#        318140
#
# Disc length: 4699 seconds
#
# Revision: 6
# Processed by: cddbd v1.5.2PL0 Copyright (c) Steve Scherf et al.
# Submitted via: ExactAudioCopy v1.0b3
#
DISCID=f9125913
DTITLE=Dr. John - N'awlinz dis dat or d'udda
DYEAR=2004
DGENRE=Blues
TTITLE0=Quatre parishe
TTITLE1=When the Saints go marching in
TTITLE2=Lay my Burden down
TTITLE3=Marie Laveau
TTITLE4=Dear old Southland
TTITLE5=Dis, dat or d'udda
TTITLE6=Chickee le pas
TTITLE7=The Monkey
TTITLE8=Shango Tango
TTITLE9=I ate up the Apple Tree
TTITLE10=You ain't such a much
TTITLE11=Life's a one Way Ticket
TTITLE12=Hen layin' Rooster
TTITLE13=Stakalee
TTITLE14=Eh las bas
TTITLE15=St. James Infirmary
TTITLE16=Time marches on
TTITLE17=I'm goin' home
TTITLE18=data
EXTD=YEAR: 2004
EXTT0=
EXTT1=
EXTT2=
EXTT3=
EXTT4=
EXTT5=
EXTT6=
EXTT7=
EXTT8=
EXTT9=
EXTT10=
EXTT11=
EXTT12=
EXTT13=
EXTT14=
EXTT15=
EXTT16=
EXTT17=
EXTT18=
PLAYORDER=
